<svg width="268" height="65" viewBox="0 0 268 65" fill="none" xmlns="http://www.w3.org/2000/svg">
<path d="M1.54406 47C1.45873 47 1.41607 46.872 1.41607 46.616C1.41607 46.36 1.45873 46.232 1.54406 46.232C3.5494 46.232 5.04273 46.1253 6.02407 45.912C7.0054 45.656 7.68807 45.2293 8.07207 44.632C8.49873 44.0346 8.71207 43.096 8.71207 41.816V15.448C8.71207 13.1866 8.13607 12.056 6.98407 12.056C5.9174 12.056 4.01873 13.08 1.28806 15.128L1.16007 15.192C0.989398 15.192 0.861398 15.0853 0.776065 14.872C0.690732 14.6586 0.733398 14.5093 0.904065 14.424L11.5921 6.55198C11.8054 6.42397 11.9547 6.35997 12.0401 6.35997C12.1254 6.35997 12.2107 6.40264 12.2961 6.48798C12.3814 6.57331 12.4241 6.65864 12.4241 6.74398V41.816C12.4241 43.096 12.5947 44.056 12.9361 44.696C13.2774 45.2933 13.9387 45.6986 14.9201 45.912C15.9014 46.1253 17.4374 46.232 19.5281 46.232C19.6134 46.232 19.6561 46.36 19.6561 46.616C19.6561 46.872 19.6134 47 19.5281 47C17.9494 47 16.7121 46.9786 15.8161 46.936L10.5681 46.872L5.38407 46.936C4.4454 46.9786 3.1654 47 1.54406 47Z" fill="black"/>
<path d="M24.5601 47C24.3467 47 24.1547 46.8933 23.9841 46.68C23.8561 46.4666 23.8774 46.296 24.0481 46.168C25.6694 44.12 26.9067 42.6053 27.7601 41.624C30.8747 37.8266 33.3281 34.6906 35.1201 32.216C36.9121 29.7413 38.4267 27.2026 39.6641 24.6C40.9014 21.9546 41.5201 19.4373 41.5201 17.048C41.5201 14.5306 40.8587 12.568 39.5361 11.16C38.2134 9.70931 36.3574 8.98397 33.9681 8.98397C31.8347 8.98397 30.0214 9.60264 28.5281 10.84C27.0347 12.0346 25.9254 13.7626 25.2001 16.024C25.2001 16.0666 25.1147 16.088 24.9441 16.088C24.6027 16.088 24.4534 16.0026 24.4961 15.832C25.0934 12.8026 26.3947 10.456 28.4001 8.79198C30.4054 7.12798 32.8801 6.29597 35.8241 6.29597C38.8961 6.29597 41.3067 7.19197 43.0561 8.98397C44.8481 10.7333 45.7441 12.9946 45.7441 15.768C45.7441 18.2426 45.0614 20.8026 43.6961 23.448C42.3307 26.0933 40.7521 28.5253 38.9601 30.744C37.1681 32.9626 34.9494 35.5226 32.3041 38.424C31.9201 38.8506 31.2374 39.5973 30.2561 40.664C29.3174 41.688 28.6134 42.5413 28.1441 43.224C27.9307 43.5226 28.0161 43.672 28.4001 43.672C33.9467 43.672 37.8721 43.608 40.1761 43.48C42.4801 43.3093 44.1014 42.9253 45.0401 42.328C45.9787 41.688 46.4694 40.664 46.5121 39.256C46.5121 39.1706 46.6187 39.128 46.8321 39.128C47.0881 39.128 47.2161 39.1706 47.2161 39.256L47.1521 46.296C47.1521 46.4666 47.0881 46.6373 46.9601 46.808C46.8747 46.936 46.7467 47 46.5761 47H24.5601Z" fill="black"/>
<path d="M63.9996 23C67.7542 23 70.6982 24.0453 72.8316 26.136C75.0076 28.184 76.0956 31.128 76.0956 34.968C76.0956 39.0213 74.9222 42.1786 72.5756 44.44C70.2289 46.6586 67.2422 47.768 63.6156 47.768C61.6102 47.768 59.8182 47.384 58.2396 46.616C56.6609 45.8053 55.1889 44.5893 53.8236 42.968L53.7596 42.84C53.7596 42.6693 53.8449 42.5413 54.0156 42.456C54.1862 42.328 54.3142 42.328 54.3996 42.456C55.4236 43.6506 56.6396 44.5466 58.0476 45.144C59.4982 45.7413 61.0342 46.04 62.6556 46.04C65.6849 46.04 67.9462 45.1013 69.4396 43.224C70.9329 41.304 71.6796 38.7866 71.6796 35.672C71.6796 32.344 70.8476 29.72 69.1836 27.8C67.5196 25.8373 64.9596 24.856 61.5036 24.856C60.5649 24.856 59.5409 24.9413 58.4316 25.112C57.3649 25.24 56.4902 25.432 55.8076 25.688C55.5942 25.688 55.4236 25.624 55.2956 25.496C55.1676 25.3253 55.1249 25.1333 55.1676 24.92L57.2156 7.76797C57.2582 7.46931 57.3222 7.27731 57.4076 7.19197C57.4929 7.06398 57.7062 6.99998 58.0476 6.99998C63.8076 6.99998 67.6262 6.97864 69.5036 6.93597C71.4236 6.85064 72.6609 6.70131 73.2156 6.48798C73.8129 6.27464 74.2822 5.82664 74.6236 5.14397C74.6236 5.05864 74.7089 5.01598 74.8796 5.01598C75.0076 5.01598 75.1142 5.05864 75.1996 5.14397C75.3276 5.18664 75.3702 5.25064 75.3276 5.33598L74.4956 9.55997C74.3676 10.0293 74.1756 10.3493 73.9196 10.52C73.7062 10.648 73.3222 10.712 72.7676 10.712L59.5196 10.392C58.9649 10.392 58.6449 10.6906 58.5596 11.288L57.0236 24.024C59.3702 23.3413 61.6956 23 63.9996 23Z" fill="black"/>
<path d="M115.436 24.472C118.806 24.728 121.516 25.8586 123.564 27.864C125.654 29.8266 126.7 32.28 126.7 35.224C126.7 37.4853 126.145 39.5333 125.036 41.368C123.926 43.2026 122.39 44.6533 120.428 45.72C118.508 46.744 116.353 47.256 113.964 47.256C112.556 47.256 111.02 47.192 109.356 47.064C108.758 47.0213 108.054 46.9786 107.244 46.936C106.433 46.8933 105.537 46.872 104.556 46.872L100.204 46.936C99.4356 46.9786 98.3476 47 96.9396 47C96.8542 47 96.8116 46.872 96.8116 46.616C96.8116 46.36 96.8542 46.232 96.9396 46.232C98.5609 46.232 99.7556 46.1253 100.524 45.912C101.292 45.656 101.825 45.2293 102.124 44.632C102.422 44.0346 102.572 43.096 102.572 41.816V12.184C102.572 10.904 102.422 9.96531 102.124 9.36798C101.868 8.77064 101.356 8.36531 100.588 8.15197C99.8196 7.89597 98.6462 7.76797 97.0676 7.76797C96.9396 7.76797 96.8756 7.63998 96.8756 7.38398C96.8756 7.12798 96.9396 6.99998 97.0676 6.99998L100.204 7.06398C101.996 7.14931 103.446 7.19197 104.556 7.19197C105.324 7.19197 106.028 7.17064 106.668 7.12798C107.35 7.08531 107.926 7.04264 108.396 6.99998C109.718 6.87198 110.956 6.80798 112.108 6.80798C115.692 6.80798 118.38 7.59731 120.172 9.17598C121.964 10.712 122.86 12.7386 122.86 15.256C122.86 17.304 122.198 19.1386 120.876 20.76C119.553 22.3386 117.74 23.576 115.436 24.472ZM110.7 7.76797C109.59 7.76797 108.758 7.85331 108.204 8.02398C107.692 8.19464 107.308 8.59998 107.052 9.23997C106.796 9.87997 106.668 10.904 106.668 12.312V24.472L109.548 24.536C112.662 24.536 114.966 23.7466 116.46 22.168C117.953 20.5466 118.7 18.4133 118.7 15.768C118.7 13.3786 118.038 11.4586 116.716 10.008C115.436 8.51464 113.43 7.76797 110.7 7.76797ZM113.004 46.104C116.118 46.104 118.422 45.3146 119.916 43.736C121.452 42.1146 122.22 39.8106 122.22 36.824C122.22 33.5813 121.26 30.9573 119.34 28.952C117.462 26.9466 114.86 25.9226 111.532 25.88C110.166 25.8373 108.545 25.88 106.668 26.008V41.816C106.668 42.9253 106.817 43.7786 107.116 44.376C107.457 44.9733 108.076 45.4213 108.972 45.72C109.91 45.976 111.254 46.104 113.004 46.104Z" fill="black"/>
<path d="M160.787 43.288C160.958 43.288 161.064 43.3946 161.107 43.608C161.192 43.7786 161.15 43.8853 160.979 43.928L153.555 47.512C153.47 47.5546 153.363 47.576 153.235 47.576C152.851 47.576 152.467 47.0853 152.083 46.104C151.742 45.08 151.55 43.8 151.507 42.264C149.928 43.8853 148.328 45.1866 146.707 46.168C145.086 47.1493 143.315 47.64 141.395 47.64C138.792 47.64 136.595 46.68 134.803 44.76C133.054 42.84 132.179 40.152 132.179 36.696C132.179 33.624 132.904 30.936 134.355 28.632C135.806 26.328 137.619 24.5573 139.795 23.32C142.014 22.0826 144.232 21.464 146.451 21.464C148.84 21.464 150.91 22.104 152.659 23.384C153.427 22.9573 154.024 22.4026 154.451 21.72C154.494 21.6346 154.6 21.6346 154.771 21.72C154.942 21.7626 155.027 21.8266 155.027 21.912V40.152C155.027 41.6026 155.198 42.648 155.539 43.288C155.88 43.8853 156.456 44.184 157.267 44.184C157.992 44.184 159.123 43.8853 160.659 43.288H160.787ZM143.571 45.528C144.979 45.528 146.323 45.144 147.603 44.376C148.926 43.5653 150.227 42.52 151.507 41.24V28.184C151.507 26.6053 150.824 25.304 149.459 24.28C148.094 23.256 146.558 22.744 144.851 22.744C142.334 22.744 140.286 23.8746 138.707 26.136C137.171 28.3546 136.403 31.256 136.403 34.84C136.403 38.04 137.043 40.6213 138.323 42.584C139.646 44.5466 141.395 45.528 143.571 45.528Z" fill="black"/>
<path d="M192.162 46.232C192.29 46.232 192.354 46.36 192.354 46.616C192.354 46.872 192.29 47 192.162 47C191.181 47 190.391 46.9786 189.794 46.936L186.338 46.872L181.73 46.936C181.047 46.9786 180.13 47 178.978 47C178.893 47 178.85 46.872 178.85 46.616C178.85 46.36 178.893 46.232 178.978 46.232C181.111 46.232 182.178 45.8266 182.178 45.016C182.178 44.632 181.986 44.1626 181.602 43.608L173.73 32.92L170.53 35.416V41.816C170.53 43.0533 170.637 43.992 170.85 44.632C171.063 45.2293 171.447 45.656 172.002 45.912C172.557 46.1253 173.41 46.232 174.562 46.232C174.69 46.232 174.754 46.36 174.754 46.616C174.754 46.872 174.69 47 174.562 47C173.581 47 172.791 46.9786 172.194 46.936L168.738 46.872L165.282 46.936C164.685 46.9786 163.895 47 162.914 47C162.786 47 162.722 46.872 162.722 46.616C162.722 46.36 162.786 46.232 162.914 46.232C164.066 46.232 164.919 46.1253 165.474 45.912C166.029 45.656 166.413 45.2293 166.626 44.632C166.839 43.992 166.946 43.0533 166.946 41.816V8.72797C166.946 7.19198 166.797 6.08264 166.498 5.39997C166.199 4.71731 165.666 4.37598 164.898 4.37598C164.258 4.37598 163.277 4.67464 161.954 5.27198H161.826C161.698 5.27198 161.591 5.16531 161.506 4.95198C161.421 4.73864 161.463 4.61064 161.634 4.56797L169.634 0.663975L169.954 0.599976C170.082 0.599976 170.21 0.663975 170.338 0.791973C170.466 0.877308 170.53 0.983976 170.53 1.11198V34.392L179.106 27.48C180.471 26.4133 181.154 25.4746 181.154 24.664C181.154 23.5973 179.938 23.064 177.506 23.064C177.378 23.064 177.314 22.936 177.314 22.68C177.314 22.424 177.378 22.296 177.506 22.296C178.658 22.296 179.533 22.3173 180.13 22.36L184.802 22.424L189.09 22.36C189.645 22.3173 190.413 22.296 191.394 22.296C191.522 22.296 191.586 22.424 191.586 22.68C191.586 22.936 191.522 23.064 191.394 23.064C189.815 23.064 188.066 23.448 186.146 24.216C184.226 24.984 182.306 26.136 180.386 27.672L176.674 30.616L184.802 41.816C186.935 44.76 189.389 46.232 192.162 46.232Z" fill="black"/>
<path d="M214.859 43.416C214.987 43.416 215.093 43.5013 215.179 43.672C215.307 43.8 215.328 43.928 215.243 44.056C212.341 46.5306 209.227 47.768 205.899 47.768C203.381 47.768 201.205 47.192 199.371 46.04C197.536 44.888 196.149 43.3946 195.211 41.56C194.315 39.6826 193.867 37.656 193.867 35.48C193.867 32.92 194.464 30.5946 195.659 28.504C196.896 26.4133 198.56 24.7706 200.651 23.576C202.741 22.3386 205.067 21.72 207.627 21.72C209.931 21.72 211.723 22.296 213.003 23.448C214.283 24.5573 214.923 26.0933 214.923 28.056C214.923 28.568 214.859 28.952 214.731 29.208C214.645 29.4213 214.453 29.528 214.155 29.528L198.411 29.656C198.197 30.808 198.091 31.9173 198.091 32.984C198.091 36.696 198.987 39.7253 200.779 42.072C202.571 44.376 205.045 45.528 208.203 45.528C210.635 45.528 212.832 44.824 214.795 43.416H214.859ZM205.451 23C203.701 23 202.229 23.512 201.035 24.536C199.883 25.5173 199.072 26.9253 198.603 28.76L210.507 28.504C210.507 26.7546 210.037 25.4106 209.099 24.472C208.203 23.4906 206.987 23 205.451 23Z" fill="black"/>
<path d="M235.288 21.72C236.226 21.72 237.122 21.976 237.976 22.488C238.829 23 239.256 23.6186 239.256 24.344C239.256 24.8986 239.064 25.368 238.68 25.752C238.338 26.136 237.826 26.328 237.144 26.328C236.76 26.328 236.418 26.264 236.12 26.136C235.864 25.9653 235.544 25.7306 235.16 25.432C234.776 25.0906 234.413 24.8346 234.072 24.664C233.73 24.4933 233.325 24.408 232.856 24.408C232.301 24.408 231.704 24.6426 231.064 25.112C230.466 25.5386 229.506 26.52 228.184 28.056V41.816C228.184 43.096 228.333 44.0346 228.632 44.632C228.973 45.2293 229.57 45.656 230.424 45.912C231.277 46.1253 232.6 46.232 234.392 46.232C234.562 46.232 234.648 46.36 234.648 46.616C234.648 46.872 234.562 47 234.392 47C233.026 47 231.938 46.9786 231.128 46.936L226.392 46.872L222.872 46.936C222.317 46.9786 221.549 47 220.568 47C220.44 47 220.376 46.872 220.376 46.616C220.376 46.36 220.44 46.232 220.568 46.232C221.72 46.232 222.573 46.1253 223.128 45.912C223.682 45.656 224.045 45.2293 224.216 44.632C224.429 44.0346 224.536 43.096 224.536 41.816V29.144C224.536 27.6933 224.365 26.648 224.024 26.008C223.682 25.368 223.106 25.048 222.296 25.048C221.613 25.048 220.461 25.368 218.84 26.008H218.712C218.541 26.008 218.413 25.9226 218.328 25.752C218.285 25.5386 218.349 25.3893 218.52 25.304L225.944 21.784C226.029 21.7413 226.157 21.72 226.328 21.72C226.712 21.72 227.117 22.2106 227.544 23.192C227.97 24.1733 228.184 25.432 228.184 26.968V27.032C229.933 24.984 231.32 23.5973 232.344 22.872C233.368 22.104 234.349 21.72 235.288 21.72Z" fill="black"/>
<path d="M266.536 21.72C266.664 21.72 266.792 21.784 266.92 21.912C267.048 21.9973 267.112 22.104 267.112 22.232V51.48C267.112 55.5333 266.003 58.7973 263.784 61.272C261.565 63.7466 258.408 64.984 254.312 64.984C251.965 64.984 249.981 64.5146 248.36 63.576C246.739 62.6373 245.928 61.464 245.928 60.056C245.928 59.416 246.12 58.9253 246.504 58.584C246.888 58.2426 247.379 58.072 247.976 58.072C248.531 58.072 249 58.2213 249.384 58.52C249.768 58.8613 250.216 59.3946 250.728 60.12C251.539 61.2293 252.371 62.0826 253.224 62.68C254.12 63.32 255.4 63.64 257.064 63.64C259.027 63.64 260.584 62.872 261.736 61.336C262.931 59.8 263.528 57.0266 263.528 53.016V42.072C261.864 43.9493 260.179 45.336 258.472 46.232C256.808 47.0853 255.08 47.512 253.288 47.512C251.112 47.512 249.427 46.8506 248.232 45.528C247.08 44.1626 246.504 42.2 246.504 39.64V29.848C246.504 28.184 246.355 26.9893 246.056 26.264C245.757 25.496 245.267 25.112 244.584 25.112C243.987 25.112 243.261 25.3253 242.408 25.752H242.344C242.173 25.752 242.045 25.6453 241.96 25.432C241.875 25.2186 241.917 25.0693 242.088 24.984L249.192 21.784L249.448 21.72C249.576 21.72 249.704 21.784 249.832 21.912C250.003 21.9973 250.088 22.104 250.088 22.232V37.528C250.088 40.0453 250.536 41.9013 251.432 43.096C252.328 44.2906 253.672 44.888 255.464 44.888C256.829 44.888 258.216 44.5466 259.624 43.864C261.075 43.1813 262.376 42.2213 263.528 40.984V29.848C263.528 28.184 263.379 26.9893 263.08 26.264C262.781 25.496 262.291 25.112 261.608 25.112C261.053 25.112 260.349 25.3253 259.496 25.752H259.432C259.261 25.752 259.112 25.6453 258.984 25.432C258.899 25.2186 258.941 25.0693 259.112 24.984L266.216 21.784L266.536 21.72Z" fill="black"/>
</svg>
